PathFileType	4	(X/Y/Z)	C:/Users/opensim2020/Desktop/walking_exp_matlab/subject02_walking05_straight_02.trc																																																																																																																												
DataRate	CameraRate	NumFrames	NumMarkers	Units	OrigDataRate	OrigDataStartFrame	OrigNumFrames																																																																																																																								
100	100	4	42	mm	100	1366	243																																																																																																																								
Frame#	Time	LFHD			RFHD			LBHD			RBHD			C7			T10			CLAV			STRN			RBAK			LSHO			LUPA			LELB			LFRM			LWRA			LWRB			LFIN			RSHO			RUPA			RELB			RFRM			RWRA			RWRB			RFIN			LASI			RASI			LPSI			RPSI			LTHI			LKNE			LTIB			LANK			LHEE			LTOE			RTHI			RKNE			RTIB			RANK			RHEE			RTOE			*39			*40			*41		
		X1	Y1	Z1	X2	Y2	Z2	X3	Y3	Z3	X4	Y4	Z4	X5	Y5	Z5	X6	Y6	Z6	X7	Y7	Z7	X8	Y8	Z8	X9	Y9	Z9	X10	Y10	Z10	X11	Y11	Z11	X12	Y12	Z12	X13	Y13	Z13	X14	Y14	Z14	X15	Y15	Z15	X16	Y16	Z16	X17	Y17	Z17	X18	Y18	Z18	X19	Y19	Z19	X20	Y20	Z20	X21	Y21	Z21	X22	Y22	Z22	X23	Y23	Z23	X24	Y24	Z24	X25	Y25	Z25	X26	Y26	Z26	X27	Y27	Z27	X28	Y28	Z28	X29	Y29	Z29	X30	Y30	Z30	X31	Y31	Z31	X32	Y32	Z32	X33	Y33	Z33	X34	Y34	Z34	X35	Y35	Z35	X36	Y36	Z36	X37	Y37	Z37	X38	Y38	Z38	X39	Y39	Z39	X40	Y40	Z40	X41	Y41	Z41	X42	Y42	Z42
																																																																																																																															
1	0	-1155.82751	1762.62793	-1538.49768	-1148.72534	1743.57996	-1396.79578	-1266.48181	1660.20081	-1544.79626	-1271.4884	1637.72986	-1403.83447	-1301.19043	1532.8728	-1464.18372	-1358.5658	1260.53894	-1450.91516	-1164.38818	1463.68079	-1491.89368	-1114.98975	1289.55518	-1488.88953	-1352.53992	1363.35864	-1392.0614	-1250.39868	1507.26208	-1650.15076	-1246.50317	1315.98816	-1749.82849	-1220.99756	1179.05518	-1781.91797	-1164.66833	1059.08716	-1801.94495	-1065.33203	964.31317	-1778.36633	-1109.40649	949.9325	-1810.84082	-1065.93225	900.10974	-1818.95581	-1195.32739	1498.51038	-1290.23755	-1205.57507	1304.88318	-1204.67969	-1179.29773	1159.75989	-1188.74219	-1135.5481	1046.72107	-1177.51758	-1076.25854	927.29993	-1206.91528	-1116.71484	918.22473	-1167.26282	-1071.56763	860.87384	-1172.49548	-1147.79724	998.04498	-1614.96826	-1114.703	985.34094	-1359.60229	-1345.66919	1040.52869	-1502.37671	-1335.28406	1037.87451	-1388.65588	-1242.3855	691.98431	-1652.1106	-1290.59875	491.85114	-1618.08691	-1360.5459	308.96774	-1606.16602	-1359.77429	81.12244	-1575.8114	-1385.38208	54.38473	-1520.25989	-1207.22876	39.20132	-1613.33154	-1122.54309	690.28369	-1262.96729	-1063.92102	494.30032	-1281.86841	-1137.63416	322.99622	-1269.43018	-1186.78687	135.58575	-1293.87695	-1221.91736	80.86426	-1351.42139	-1051.38965	57.65651	-1262.92542	-1267.45227	1802.85413	-1445.38501	-2845.20166	1033.69763	3360.20288	NaN	NaN	NaN
2	0.01	-1147.22925	1762.23389	-1539.63171	-1140.84631	1742.91528	-1397.73376	-1257.99915	1660.005	-1546.49744	-1263.86389	1637.44617	-1405.57239	-1293.58765	1532.61267	-1466.12305	-1351.0614	1260.18872	-1452.42871	-1156.72876	1463.09204	-1492.80737	-1107.35669	1289.02393	-1489.85681	-1342.45642	1361.79785	-1391.73865	-1241.84473	1507.30823	-1651.62195	-1235.85718	1316.90295	-1752.08252	-1208.38306	1180.54602	-1785.09387	-1149.92493	1061.61255	-1805.54663	-1049.07239	968.4657	-1781.90515	-1092.70679	953.51868	-1814.75171	-1048.24121	904.65247	-1823.0885	-1188.96301	1498.02014	-1291.50269	-1200.59705	1304.50659	-1205.83643	-1175.3324	1159.47485	-1189.38953	-1132.64587	1046.26282	-1177.02881	-1073.88086	926.31799	-1205.60938	-1114.91687	917.53809	-1166.29138	-1070.37488	859.82843	-1170.7666	-1140.56006	996.8175	-1615.69873	-1106.77356	985.22217	-1359.87781	-1338.51648	1040.45154	-1502.93518	-1328.08301	1037.79663	-1389.39575	-1236.93335	691.47937	-1652.22083	-1286.3468	491.65964	-1618.31299	-1357.90295	309.40057	-1606.15417	-1359.23865	81.82186	-1575.69556	-1384.89783	55.05717	-1519.97974	-1206.87646	39.12564	-1613.53552	-1114.48877	690.08881	-1264.46472	-1054.40002	493.82068	-1284.94055	-1119.85596	319.03619	-1271.54382	-1160.7843	129.54692	-1295.15674	-1194.33838	73.61616	-1352.02551	-1021.37921	57.75462	-1266.55603	-1259.16125	1802.45459	-1446.86804	-2845.10938	1033.79529	3360.1145	NaN	NaN	NaN
3	0.02	-1138.43201	1761.58728	-1540.27234	-1133.24573	1742.43616	-1398.59717	-1249.5238	1659.7561	-1547.98071	-1256.21887	1637.17761	-1407.09253	-1285.97571	1532.20618	-1467.75916	-1343.56506	1259.79297	-1453.99915	-1149.07104	1462.76575	-1494.08838	-1099.81421	1288.52869	-1490.76318	-1338.50159	1362.65991	-1396.30432	-1233.32788	1507.2478	-1652.83777	-1225.45166	1317.64941	-1754.11633	-1195.95752	1181.86389	-1787.95679	-1135.51624	1064.07849	-1808.88647	-1033.12512	972.71222	-1785.57593	-1076.42114	957.01141	-1818.39221	-1031.0874	909.1814	-1827.02808	-1182.62109	1497.5387	-1292.68457	-1196.03564	1304.44971	-1207.06543	-1171.85864	1159.39954	-1189.30383	-1129.58826	1045.72876	-1176.78345	-1072.45703	925.03943	-1204.44202	-1112.98181	916.98358	-1164.94153	-1068.82117	858.77649	-1169.28796	-1133.06714	995.86322	-1616.09131	-1099.29395	984.85809	-1360.23401	-1331.19788	1040.2666	-1503.55396	-1320.6969	1037.63428	-1390.07324	-1231.427	690.83356	-1652.30396	-1281.93201	491.39929	-1618.35327	-1355.0426	309.72867	-1606.23743	-1358.28687	82.39559	-1575.42712	-1384.37817	55.87074	-1519.66443	-1206.44714	39.04063	-1613.77197	-1106.57349	689.76801	-1265.87756	-1045.40771	492.97879	-1287.85828	-1102.55078	315.32541	-1273.26404	-1134.56921	124.10178	-1296.15588	-1166.46033	66.75369	-1352.54553	-991.44495	58.50289	-1270.09253	-1250.89453	1802.28101	-1448.448	-2845.35181	1033.81531	3360.18042	NaN	NaN	NaN
4	0.03	-1129.75989	1760.88806	-1540.90759	-1125.08521	1741.76917	-1399.13879	-1241.08154	1659.35144	-1549.29871	-1248.60535	1636.76709	-1408.47681	-1278.35413	1531.67639	-1469.24353	-1335.98853	1259.2627	-1455.29456	-1141.27588	1462.20923	-1494.90674	-1092.2113	1288.07166	-1491.70276	-1331.34119	1362.07312	-1398.04895	-1224.80261	1507.07629	-1653.72986	-1215.31079	1318.32349	-1755.96045	-1183.86499	1183.2749	-1790.83289	-1121.41113	1066.46399	-1811.93408	-1017.64203	976.71387	-1788.80969	-1060.63184	960.42621	-1821.79956	-1014.37988	913.65009	-1830.85657	-1176.05725	1496.97693	-1293.71301	-1190.729	1304.11011	-1207.7948	-1167.72571	1159.18237	-1189.62268	-1126.84375	1045.35815	-1176.33325	-1069.98865	923.99286	-1202.9657	-1111.06042	916.4436	-1164.04785	-1067.34705	857.77405	-1167.60022	-1125.52136	995.11908	-1616.1748	-1092.08301	984.1084	-1360.38416	-1323.71008	1039.96008	-1504.16492	-1313.14453	1037.41943	-1390.70789	-1225.73669	689.98199	-1652.39636	-1277.29688	490.98831	-1618.26282	-1351.83386	309.87604	-1606.34729	-1357.44995	83.06944	-1575.27563	-1383.71533	56.40939	-1519.1709	-1206.00745	39.00341	-1613.94312	-1098.849	689.1698	-1267.15259	-1036.95447	491.96463	-1290.71985	-1085.29541	311.7063	-1274.86475	-1108.14514	118.96474	-1297.02234	-1138.40881	60.49704	-1352.93396	-961.64465	59.83964	-1273.53711	-1242.62854	1801.81824	-1449.65149	-2845.86377	1033.96631	3357.32104	NaN	NaN	NaN
